<svg aria-hidden="true" style="position: absolute; width: 0; height: 0; overflow: hidden;" version="1.1" xmlns="http://www.w3.org/2000/svg" xmlns:xlink="http://www.w3.org/1999/xlink">
<defs>
<symbol id="icon-archive" viewBox="0 0 32 32">
<path d="M31.182 3.964l-2.471-2.987c-0.48-0.604-1.209-0.978-2.044-0.978h-21.333c-0.836 0-1.564 0.373-2.062 0.978l-2.453 2.987c-0.516 0.604-0.818 1.404-0.818 2.258v22.222c0 1.956 1.6 3.556 3.556 3.556h24.889c1.956 0 3.556-1.6 3.556-3.556v-22.222c0-0.853-0.302-1.653-0.818-2.258zM15.378 25.156l-9.156-9.156h6.222v-3.556h7.111v3.556h6.222l-9.156 9.156c-0.338 0.338-0.907 0.338-1.244 0zM3.769 3.556l1.44-1.778h21.333l1.671 1.778h-24.444z"></path>
</symbol>
<symbol id="icon-buy" viewBox="0 0 32 32">
<path d="M30.79 6.44c-0.184-0.238-0.469-0.389-0.79-0.39h-22.87l-1.185-3.475c-0.137-0.398-0.508-0.679-0.945-0.68h-3c-0.552 0-1 0.448-1 1s0.448 1 1 1v0h2.285l6.575 19.325c0.139 0.396 0.509 0.675 0.945 0.675h14.195c0.552 0 1-0.448 1-1s-0.448-1-1-1v0h-13.5l-0.73-2.155h15.23c0.001 0 0.003 0 0.004 0 0.46 0 0.847-0.31 0.964-0.733l0.002-0.007 3-11.69c0.021-0.076 0.033-0.163 0.033-0.253 0-0.234-0.080-0.448-0.214-0.619l0.002 0.002zM26.225 17.74h-15.115l-3.3-9.69h20.9zM15 24.745c-3.54 0.11-3.54 5.245 0 5.36 3.54-0.105 3.54-5.25 0-5.36zM15 28.105c-0.376 0-0.68-0.304-0.68-0.68s0.304-0.68 0.68-0.68v0c0.376 0 0.68 0.304 0.68 0.68s-0.304 0.68-0.68 0.68v0zM23.705 24.745c-3.54 0.11-3.54 5.245 0 5.36 3.54-0.105 3.54-5.25 0-5.36zM23.705 28.105c-0.376 0-0.68-0.304-0.68-0.68s0.304-0.68 0.68-0.68v0c0.376 0 0.68 0.304 0.68 0.68s-0.304 0.68-0.68 0.68v0z"></path>
</symbol>
<symbol id="icon-delete" viewBox="0 0 32 32">
<path d="M5.333 28.444c0 1.956 1.6 3.556 3.556 3.556h14.222c1.956 0 3.556-1.6 3.556-3.556v-17.778c0-1.956-1.6-3.556-3.556-3.556h-14.222c-1.956 0-3.556 1.6-3.556 3.556v17.778zM26.667 1.778h-4.444l-1.262-1.262c-0.32-0.32-0.782-0.516-1.244-0.516h-7.431c-0.462 0-0.924 0.196-1.244 0.516l-1.262 1.262h-4.444c-0.978 0-1.778 0.8-1.778 1.778s0.8 1.778 1.778 1.778h21.333c0.978 0 1.778-0.8 1.778-1.778s-0.8-1.778-1.778-1.778z"></path>
</symbol>
<symbol id="icon-edit" viewBox="0 0 32 32">
<path d="M0 25.707v5.404c0 0.498 0.391 0.889 0.889 0.889h5.404c0.231 0 0.462-0.089 0.622-0.267l19.413-19.396-6.667-6.667-19.396 19.396c-0.178 0.178-0.267 0.391-0.267 0.64zM31.484 7.182c0.321-0.321 0.52-0.764 0.52-1.253s-0.199-0.933-0.52-1.253l-4.16-4.16c-0.321-0.321-0.764-0.52-1.253-0.52s-0.933 0.199-1.253 0.52l-3.253 3.253 6.667 6.667 3.253-3.253z">
</path>
</symbol>
<symbol id="icon-lamp" viewBox="0 0 32 32">
<path d="M16 5.63c0.414 0 0.75-0.336 0.75-0.75v0-2.38c0-0.414-0.336-0.75-0.75-0.75s-0.75 0.336-0.75 0.75v0 2.38c0 0.414 0.336 0.75 0.75 0.75v0zM23.29 8.65c0.207-0.001 0.394-0.085 0.53-0.22l-0 0 1.68-1.685c0.137-0.135 0.221-0.323 0.221-0.53s-0.085-0.395-0.221-0.53l-0-0c-0.136-0.134-0.323-0.217-0.53-0.217s-0.394 0.083-0.53 0.217l0-0-1.68 1.685c-0.137 0.135-0.221 0.323-0.221 0.53s0.085 0.395 0.221 0.53l0 0c0.141 0.14 0.331 0.22 0.53 0.22zM28.69 14.44h-2.38c-0.414 0-0.75 0.336-0.75 0.75s0.336 0.75 0.75 0.75v0h2.38c0.414 0 0.75-0.336 0.75-0.75s-0.336-0.75-0.75-0.75v0zM23.82 21.95c-0.139-0.171-0.349-0.28-0.584-0.28-0.414 0-0.75 0.336-0.75 0.75 0 0.233 0.106 0.441 0.273 0.579l0.001 0.001 1.68 1.68c0.136 0.134 0.323 0.218 0.53 0.22h0c0.41-0.006 0.74-0.339 0.74-0.75 0-0.202-0.080-0.385-0.21-0.52l-1.68-1.68zM8.18 21.95l-1.68 1.68c-0.136 0.136-0.219 0.323-0.219 0.53 0 0.414 0.335 0.75 0.749 0.75h0c0.207-0.002 0.394-0.086 0.53-0.22l-0 0 1.68-1.69c0.147-0.137 0.239-0.332 0.239-0.549 0-0.414-0.336-0.75-0.75-0.75-0.216 0-0.411 0.092-0.548 0.238l-0 0v0.010zM5.69 14.44h-2.38c-0.414 0-0.75 0.336-0.75 0.75s0.336 0.75 0.75 0.75v0h2.38c0.414 0 0.75-0.336 0.75-0.75s-0.336-0.75-0.75-0.75v0zM8.18 8.43c0.136 0.136 0.324 0.22 0.531 0.22 0.311 0 0.577-0.189 0.691-0.458l0.002-0.005c0.036-0.085 0.057-0.183 0.057-0.287 0-0.207-0.085-0.395-0.221-0.53l-0-0-1.68-1.685c-0.136-0.134-0.323-0.217-0.529-0.217-0.31 0-0.577 0.187-0.693 0.455l-0.002 0.005c-0.036 0.085-0.057 0.183-0.057 0.287 0 0.207 0.085 0.395 0.221 0.53l0 0 1.68 1.685zM24.23 14.5c-0.364-4.258-3.91-7.576-8.232-7.576-4.562 0-8.26 3.698-8.26 8.26 0 2.496 1.107 4.733 2.856 6.247l0.010 0.009c1.153 0.985 1.883 2.436 1.895 4.058v0.352c0 0.414 0.336 0.75 0.75 0.75v0h0.38v1.275c0 1.309 1.061 2.37 2.37 2.37s2.37-1.061 2.37-2.37v0-1.27h0.38c0.414 0 0.75-0.336 0.75-0.75v0-0.355c0.027-1.644 0.771-3.109 1.932-4.099l0.008-0.006c1.732-1.512 2.82-3.724 2.82-6.191 0-0.248-0.011-0.493-0.033-0.736l0.002 0.031zM16.87 27.88c0 0.48-0.39 0.87-0.87 0.87s-0.87-0.39-0.87-0.87v-1.275h1.74v1.275zM20.455 20.27c-1.389 1.187-2.307 2.891-2.454 4.811l-0.001 0.024h-4c-0.129-1.927-1.031-3.622-2.396-4.792l-0.009-0.008c-1.44-1.247-2.345-3.077-2.345-5.119 0-3.733 3.027-6.76 6.76-6.76s6.76 3.027 6.76 6.76c0 2.023-0.889 3.839-2.297 5.078l-0.008 0.006h-0.010z"></path>
</symbol>
<symbol id="icon-mind" viewBox="0 0 32 32">
<path d="M28.54 18.055c-1.463-1.485-2.441-3.45-2.676-5.638l-0.004-0.042c-0.13-6.135-5.79-11.3-11.925-10.875-9.805 0.395-14.435 12.905-7.27 19.56 1.271 2.616 2.021 5.689 2.035 8.935l0 0.005c0 0.001 0 0.002 0 0.003 0 0.137 0.055 0.262 0.145 0.352l-0-0c0.090 0.090 0.215 0.145 0.352 0.145 0.001 0 0.002 0 0.003 0h11.665c0.002 0 0.005 0 0.007 0 0.246 0 0.451-0.178 0.492-0.412l0-0.003 0.415-2.395c0.2-0.895 0.745-1.065 1.69-1.295 1.105-0.27 2.62-0.64 2.405-3.32 0-0.001-0-0.001-0-0.002 0-0.049 0.031-0.091 0.074-0.108l0.001-0c0.417-0.191 0.701-0.605 0.701-1.085 0-0.213-0.056-0.413-0.154-0.586l0.003 0.006c0.416-0.19 0.7-0.602 0.7-1.081 0-0.181-0.041-0.353-0.113-0.506l0.003 0.007h0.72c0.545-0.009 0.983-0.453 0.983-1 0-0.256-0.096-0.489-0.254-0.666l0.001 0.001zM26.97 18.72c-0.505 0.007-0.912 0.418-0.912 0.925 0 0.18 0.051 0.347 0.14 0.489l-0.002-0.004c0.022 0.030 0.036 0.067 0.036 0.108s-0.013 0.078-0.036 0.108l0-0-2.195 0.155c-0.005-0-0.011-0-0.017-0-0.276 0-0.5 0.224-0.5 0.5 0 0.27 0.214 0.49 0.482 0.5l0.001 0 1.675 0.255c0.025 0.030 0.040 0.069 0.040 0.111 0 0.075-0.047 0.139-0.113 0.164l-0.001 0c-0.407 0.179-0.685 0.578-0.685 1.042 0 0.010 0 0.020 0 0.029l-0-0.001c0.37 3.605-3.34 1.135-4.080 4.385l-0.35 2h-10.755c-0.074-3.334-0.909-6.456-2.336-9.223l0.056 0.118c-2.004-1.86-3.254-4.509-3.254-7.45 0-1.294 0.242-2.531 0.683-3.669l-0.024 0.069c2.365-6.915 11.375-9.070 16.68-4.13 1.979 1.796 3.251 4.338 3.369 7.179l0.001 0.021c0.238 2.485 1.328 4.679 2.97 6.32l0 0z"></path>
<path d="M11.345 5.945l0.61 0.215c-0.004 0.046-0.006 0.099-0.006 0.153 0 0.16 0.018 0.316 0.053 0.466l-0.003-0.014c-0.38 0.2-1.070 0.365-0.82 0.95 0.082 0.17 0.253 0.285 0.452 0.285 0.079 0 0.155-0.019 0.221-0.052l-0.003 0.001 0.585-0.28c0.132 0.153 0.279 0.287 0.442 0.4l0.008 0.005c-0.13 0.405-0.5 1 0.090 1.245 0.046 0.016 0.099 0.025 0.155 0.025 0.221 0 0.408-0.143 0.474-0.341l0.001-0.004 0.215-0.615c0.067 0.010 0.144 0.015 0.223 0.015 0.136 0 0.267-0.017 0.393-0.048l-0.011 0.002 0.28 0.58c0.080 0.175 0.254 0.295 0.456 0.295 0.276 0 0.5-0.224 0.5-0.5 0-0.084-0.021-0.163-0.057-0.233l-0.279-0.577c0.156-0.131 0.29-0.281 0.4-0.447l0.005-0.008c0.215 0.091 0.473 0.175 0.74 0.238l0.035 0.007c0.003 0 0.006 0 0.009 0 0.276 0 0.5-0.224 0.5-0.5 0-0.22-0.143-0.407-0.341-0.474l-0.004-0.001-0.61-0.215c0.006-0.058 0.010-0.126 0.010-0.194 0-0.146-0.016-0.287-0.047-0.424l0.002 0.013c0.38-0.195 1.070-0.365 0.82-0.945-0.082-0.17-0.253-0.285-0.452-0.285-0.079 0-0.155 0.019-0.221 0.052l0.003-0.001-0.585 0.28c-0.13-0.155-0.278-0.288-0.442-0.4l-0.008-0.005c0.13-0.405 0.5-1-0.095-1.245-0.049-0.018-0.105-0.028-0.164-0.028-0.216 0-0.4 0.137-0.47 0.329l-0.001 0.003-0.215 0.61c-0.053-0.004-0.114-0.007-0.176-0.007-0.152 0-0.3 0.015-0.443 0.044l0.014-0.002c-0.195-0.38-0.365-1.065-0.945-0.815-0.169 0.083-0.283 0.253-0.283 0.451 0 0.078 0.018 0.152 0.050 0.217l-0.001-0.003 0.28 0.585c-0.157 0.13-0.291 0.28-0.4 0.447l-0.005 0.008-0.61-0.205c-0.049-0.018-0.106-0.028-0.165-0.028-0.276 0-0.5 0.224-0.5 0.5 0 0.217 0.138 0.402 0.332 0.471l0.004 0.001zM14 5.28c0.587 0.009 1.059 0.487 1.059 1.075 0 0.125-0.021 0.246-0.061 0.358l0.002-0.008c-0.151 0.42-0.546 0.715-1.009 0.715-0.591 0-1.070-0.479-1.070-1.070s0.479-1.070 1.070-1.070c0.003 0 0.007 0 0.010 0h-0.001zM18.585 11.32h-0.5c-0.037-0.137-0.087-0.257-0.149-0.368l0.004 0.008 0.335-0.33c0.11-0.092 0.18-0.23 0.18-0.384 0-0.276-0.224-0.5-0.5-0.5-0.149 0-0.283 0.065-0.374 0.168l-0 0.001-0.34 0.33c-0.103-0.059-0.222-0.111-0.346-0.151l-0.014-0.004v-0.47c0-0.276-0.224-0.5-0.5-0.5s-0.5 0.224-0.5 0.5v0 0.47c-0.138 0.040-0.257 0.089-0.37 0.15l0.010-0.005-0.33-0.335c-0.075-0.047-0.165-0.075-0.263-0.075-0.276 0-0.5 0.224-0.5 0.5 0 0.096 0.027 0.186 0.074 0.262l-0.001-0.002 0.33 0.34c-0.059 0.102-0.11 0.219-0.147 0.343l-0.003 0.012s-0.47 0-0.5 0c-0.276 0-0.5 0.224-0.5 0.5s0.224 0.5 0.5 0.5v0h0.475c0.038 0.139 0.088 0.261 0.15 0.374l-0.005-0.009-0.335 0.325c-0.11 0.092-0.18 0.23-0.18 0.384 0 0.276 0.224 0.5 0.5 0.5 0.149 0 0.283-0.065 0.374-0.168l0-0.001 0.34-0.33c0.103 0.059 0.222 0.111 0.346 0.151l0.014 0.004v0.49c0 0.276 0.224 0.5 0.5 0.5v0c0.276 0 0.5-0.224 0.5-0.5v0-0.5c0.138-0.040 0.257-0.089 0.37-0.15l-0.010 0.005 0.33 0.335c0.092 0.097 0.221 0.157 0.365 0.157 0.277 0 0.502-0.225 0.502-0.502 0-0.134-0.052-0.255-0.137-0.345l0 0-0.33-0.335c0.060-0.103 0.111-0.223 0.147-0.349l0.003-0.011h0.5c0.233-0.046 0.407-0.248 0.407-0.491 0-0.248-0.181-0.455-0.419-0.493l-0.003-0zM16.95 12.365c-0.143 0.141-0.34 0.228-0.558 0.228-0.439 0-0.796-0.356-0.796-0.796 0-0.222 0.091-0.423 0.238-0.567l0-0c0.143-0.141 0.34-0.228 0.557-0.228 0.439 0 0.796 0.356 0.796 0.796 0 0.222-0.091 0.423-0.238 0.567l-0 0zM13.27 12.925l-1.070-0.38c0.021-0.13 0.034-0.279 0.034-0.432 0-0.268-0.038-0.527-0.108-0.773l0.005 0.020 1-0.5c0.169-0.083 0.283-0.253 0.283-0.451 0-0.078-0.018-0.152-0.050-0.217l0.001 0.003c-0.082-0.17-0.253-0.285-0.452-0.285-0.079 0-0.155 0.019-0.221 0.052l0.003-0.001-1.025 0.5c-0.235-0.326-0.53-0.592-0.872-0.788l-0.013-0.007 0.375-1.070c0.018-0.050 0.029-0.107 0.029-0.168 0-0.277-0.224-0.501-0.501-0.501-0.217 0-0.402 0.138-0.471 0.33l-0.001 0.004-0.375 1.075c-0.132-0.023-0.284-0.035-0.438-0.035-0.268 0-0.527 0.038-0.771 0.11l0.019-0.005-0.5-1c-0.075-0.187-0.255-0.317-0.465-0.317-0.276 0-0.5 0.224-0.5 0.5 0 0.091 0.024 0.176 0.067 0.25l-0.001-0.002 0.5 1.030c-0.306 0.231-0.558 0.518-0.743 0.846l-0.007 0.014-1.075-0.375c-0.060-0.028-0.131-0.044-0.206-0.044-0.276 0-0.5 0.224-0.5 0.5 0 0.232 0.158 0.427 0.372 0.484l0.003 0.001 1.070 0.38c-0.021 0.129-0.032 0.278-0.032 0.43 0 0.271 0.037 0.532 0.107 0.781l-0.005-0.020-1 0.5c-0.175 0.080-0.295 0.254-0.295 0.456 0 0.276 0.224 0.5 0.5 0.5 0.084 0 0.163-0.021 0.233-0.057l-0.003 0.001 1.025-0.5c0.236 0.325 0.533 0.59 0.876 0.783l0.014 0.007-0.38 1.075c-0.018 0.049-0.028 0.105-0.028 0.164 0 0.216 0.137 0.4 0.329 0.47l0.003 0.001c0.050 0.018 0.108 0.029 0.168 0.029 0.217 0 0.401-0.138 0.471-0.331l0.001-0.004 0.35-1.075c0.136 0.025 0.293 0.039 0.454 0.039 0.262 0 0.516-0.038 0.755-0.109l-0.019 0.005 0.5 1.025c0.083 0.168 0.253 0.281 0.45 0.281 0.080 0 0.156-0.019 0.223-0.052l-0.003 0.001c0.169-0.083 0.283-0.253 0.283-0.451 0-0.078-0.018-0.152-0.050-0.217l0.001 0.003-0.5-1c0.316-0.243 0.575-0.545 0.763-0.89l0.007-0.015c0.319 0.13 0.732 0.268 1.153 0.385l0.086 0.020c0.008 0.001 0.018 0.001 0.028 0.001 0.276 0 0.5-0.224 0.5-0.5 0-0.227-0.152-0.419-0.359-0.48l-0.004-0.001zM8.825 13.815c-0.699-0.261-1.188-0.923-1.188-1.7 0-1 0.81-1.81 1.81-1.81 0.207 0 0.406 0.035 0.591 0.099l-0.013-0.004c2.235 0.845 1.070 4.155-1.2 3.415z"></path>
</symbol>
<symbol id="icon-quote" viewBox="0 0 32 32">
<path d="M6.34 26c1.020 0 1.96-0.58 2.4-1.48l2.84-5.68c0.28-0.56 0.42-1.16 0.42-1.78v-9.060c0-1.1-0.9-2-2-2h-8c-1.1 0-2 0.9-2 2v8c0 1.1 0.9 2 2 2h4l-2.060 4.12c-0.9 1.78 0.4 3.88 2.4 3.88zM26.34 26c1.020 0 1.96-0.58 2.4-1.48l2.84-5.68c0.28-0.56 0.42-1.16 0.42-1.78v-9.060c0-1.1-0.9-2-2-2h-8c-1.1 0-2 0.9-2 2v8c0 1.1 0.9 2 2 2h4l-2.060 4.12c-0.9 1.78 0.4 3.88 2.4 3.88z"></path>
</symbol>
<symbol id="icon-close" viewBox="0 0 32 32">
<path d="M23.734 10.304L22.23 8.8l-5.963 5.962L10.305 8.8l-1.504 1.504 5.962 5.962-5.962 5.963 1.504 1.504 5.962-5.963 5.963 5.963 1.504-1.504-5.963-5.963 5.963-5.962z"/>
</symbol>
</defs>
</svg>
