<svg width="64" height="64" fill="none" xmlns="http://www.w3.org/2000/svg"><path d="M32 11.26a1.5 1.5 0 0 0 1.5-1.5V5a1.5 1.5 0 1 0-3 0v4.76a1.5 1.5 0 0 0 1.5 1.5ZM46.58 17.3a1.51 1.51 0 0 0 1.06-.44L51 13.49a1.49 1.49 0 0 0 0-2.12 1.51 1.51 0 0 0-2.12 0l-3.36 3.37a1.49 1.49 0 0 0 0 2.12c.282.28.662.439 1.06.44ZM57.38 28.88h-4.76a1.5 1.5 0 1 0 0 3h4.76a1.5 1.5 0 0 0 0-3ZM47.64 43.9a1.5 1.5 0 1 0-2.12 2.1l3.36 3.36a1.53 1.53 0 0 0 1.06.44A1.5 1.5 0 0 0 51 47.26l-3.36-3.36ZM16.36 43.9 13 47.26a1.5 1.5 0 0 0 1.06 2.56 1.53 1.53 0 0 0 1.06-.44L18.48 46a1.5 1.5 0 1 0-2.12-2.12v.02ZM11.38 28.88H6.62a1.5 1.5 0 1 0 0 3h4.76a1.5 1.5 0 0 0 0-3ZM16.36 16.86a1.5 1.5 0 0 0 2.448-.486 1.49 1.49 0 0 0-.328-1.634l-3.36-3.37a1.51 1.51 0 0 0-2.448.486A1.49 1.49 0 0 0 13 13.49l3.36 3.37ZM48.46 29a16.52 16.52 0 1 0-27.25 13.88A10.762 10.762 0 0 1 25 51v.7a1.5 1.5 0 0 0 1.5 1.5h.76v2.55a4.74 4.74 0 1 0 9.48 0v-2.54h.76a1.5 1.5 0 0 0 1.5-1.5V51a10.997 10.997 0 0 1 3.88-8.21A16.409 16.409 0 0 0 48.46 29ZM33.74 55.76a1.74 1.74 0 1 1-3.48 0v-2.55h3.48v2.55Zm7.17-15.22A14.06 14.06 0 0 0 36 50.21h-8a13.802 13.802 0 0 0-4.81-9.6 13.52 13.52 0 1 1 17.74-.07h-.02Z" fill="#000"/></svg>