<svg xmlns="http://www.w3.org/2000/svg" viewBox="0 0 64 64">
<g data-name="Layer 24">
<path d="M61.58 12.88A2 2 0 0 0 60 12.1H14.26l-2.37-6.95A2 2 0 0 0 10 3.79H4a2 2 0 0 0 0 4h4.57l13.15 38.65a2 2 0 0 0 1.89 1.35H52a2 2 0 0 0 0-4H25l-1.46-4.31H54A2 2 0 0 0 55.94 38l6-23.38a2 2 0 0 0-.36-1.74Zm-9.13 22.6H22.22l-6.6-19.38h41.8ZM30 49.49c-7.08.22-7.08 10.49 0 10.72 7.08-.21 7.08-10.5 0-10.72Zm0 6.72a1.36 1.36 0 0 1 0-2.72 1.36 1.36 0 0 1 0 2.72ZM47.41 49.49c-7.08.22-7.08 10.49 0 10.72 7.08-.21 7.08-10.5 0-10.72Zm0 6.72a1.36 1.36 0 0 1 0-2.72 1.36 1.36 0 0 1 0 2.72Z"/>
</g>
</svg>