<?xml version="1.0" encoding="UTF-8" standalone="no"?> 
<svg width="64" height="64" viewBox="0 0 64 64" fill="none" xmlns="http://www.w3.org/2000/svg">
<path d="M32 11.26C32.3978 11.26 32.7794 11.102 33.0607 10.8207C33.342 10.5394 33.5 10.1578 33.5 9.76V5C33.5 4.60218 33.342 4.22064 33.0607 3.93934C32.7794 3.65804 32.3978 3.5 32 3.5C31.6022 3.5 31.2206 3.65804 30.9393 3.93934C30.658 4.22064 30.5 4.60218 30.5 5V9.76C30.5 10.1578 30.658 10.5394 30.9393 10.8207C31.2206 11.102 31.6022 11.26 32 11.26V11.26Z" />
<path d="M46.58 17.2999C46.9775 17.2985 47.3584 17.1404 47.64 16.8599L51 13.4899C51.1403 13.3513 51.2517 13.1863 51.3277 13.0043C51.4037 12.8223 51.4429 12.6271 51.4429 12.4299C51.4429 12.2327 51.4037 12.0375 51.3277 11.8555C51.2517 11.6735 51.1403 11.5085 51 11.3699C50.7175 11.0914 50.3367 10.9353 49.94 10.9353C49.5433 10.9353 49.1625 11.0914 48.88 11.3699L45.52 14.7399C45.3797 14.8785 45.2683 15.0435 45.1923 15.2255C45.1163 15.4075 45.0771 15.6027 45.0771 15.7999C45.0771 15.9971 45.1163 16.1923 45.1923 16.3743C45.2683 16.5563 45.3797 16.7213 45.52 16.8599C45.8017 17.1404 46.1825 17.2985 46.58 17.2999V17.2999Z" />
<path d="M57.3801 28.8799H52.6201C52.2223 28.8799 51.8408 29.0379 51.5595 29.3192C51.2782 29.6005 51.1201 29.9821 51.1201 30.3799C51.1201 30.7777 51.2782 31.1592 51.5595 31.4405C51.8408 31.7218 52.2223 31.8799 52.6201 31.8799H57.3801C57.7779 31.8799 58.1595 31.7218 58.4408 31.4405C58.7221 31.1592 58.8801 30.7777 58.8801 30.3799C58.8801 29.9821 58.7221 29.6005 58.4408 29.3192C58.1595 29.0379 57.7779 28.8799 57.3801 28.8799V28.8799Z" />
<path d="M47.6402 43.8999C47.5086 43.7363 47.3441 43.6021 47.1573 43.5061C46.9705 43.41 46.7656 43.3543 46.5559 43.3425C46.3462 43.3306 46.1364 43.363 45.94 43.4374C45.7436 43.5118 45.565 43.6266 45.4158 43.7744C45.2666 43.9222 45.1501 44.0997 45.0738 44.2954C44.9976 44.4911 44.9632 44.7006 44.9731 44.9104C44.9829 45.1202 45.0367 45.3256 45.131 45.5133C45.2252 45.7009 45.3578 45.8667 45.5202 45.9999L48.8802 49.3599C49.1631 49.6386 49.5432 49.7964 49.9402 49.7999C50.2327 49.7959 50.5175 49.7064 50.7598 49.5426C51.002 49.3787 51.1911 49.1477 51.3037 48.8778C51.4164 48.6079 51.4477 48.3109 51.3937 48.0235C51.3398 47.7361 51.203 47.4706 51.0002 47.2599L47.6402 43.8999Z" />
<path d="M16.3602 43.9L13.0002 47.26C12.7907 47.4698 12.648 47.7369 12.5903 48.0277C12.5325 48.3185 12.5622 48.6199 12.6756 48.8939C12.7891 49.1678 12.9811 49.4019 13.2275 49.5668C13.474 49.7316 13.7637 49.8197 14.0602 49.82C14.4572 49.8164 14.8373 49.6587 15.1202 49.38L18.4802 46C18.6276 45.8627 18.7458 45.6971 18.8278 45.5131C18.9098 45.3291 18.9538 45.1305 18.9574 44.9291C18.9609 44.7276 18.9239 44.5276 18.8485 44.3408C18.773 44.154 18.6607 43.9844 18.5183 43.8419C18.3758 43.6995 18.2062 43.5872 18.0194 43.5118C17.8326 43.4363 17.6326 43.3993 17.4312 43.4028C17.2298 43.4064 17.0311 43.4505 16.8471 43.5324C16.6631 43.6144 16.4975 43.7326 16.3602 43.88V43.9Z" />
<path d="M11.3801 28.8799H6.62012C6.22229 28.8799 5.84076 29.0379 5.55946 29.3192C5.27815 29.6005 5.12012 29.9821 5.12012 30.3799C5.12012 30.7777 5.27815 31.1592 5.55946 31.4405C5.84076 31.7218 6.22229 31.8799 6.62012 31.8799H11.3801C11.7779 31.8799 12.1595 31.7218 12.4408 31.4405C12.7221 31.1592 12.8801 30.7777 12.8801 30.3799C12.8801 29.9821 12.7221 29.6005 12.4408 29.3192C12.1595 29.0379 11.7779 28.8799 11.3801 28.8799V28.8799Z" />
<path d="M16.3602 16.8599C16.6415 17.1408 17.0227 17.2986 17.4202 17.2986C17.8177 17.2986 18.199 17.1408 18.4802 16.8599C18.6205 16.7213 18.7319 16.5563 18.8079 16.3743C18.8839 16.1923 18.9231 15.9971 18.9231 15.7999C18.9231 15.6027 18.8839 15.4075 18.8079 15.2255C18.7319 15.0435 18.6205 14.8785 18.4802 14.7399L15.1202 11.3699C14.8377 11.0914 14.4569 10.9353 14.0602 10.9353C13.6635 10.9353 13.2828 11.0914 13.0002 11.3699C12.8599 11.5085 12.7486 11.6735 12.6725 11.8555C12.5965 12.0375 12.5574 12.2327 12.5574 12.4299C12.5574 12.6271 12.5965 12.8223 12.6725 13.0043C12.7486 13.1863 12.8599 13.3513 13.0002 13.4899L16.3602 16.8599Z"/>
<path d="M48.4601 28.9999C48.2357 26.2988 47.3501 23.6943 45.8814 21.4162C44.4128 19.1382 42.4061 17.2565 40.0384 15.937C37.6708 14.6176 35.0149 13.9011 32.3049 13.8505C29.5949 13.8 26.9141 14.417 24.4988 15.6472C22.0836 16.8774 20.0082 18.683 18.4556 20.9047C16.903 23.1265 15.9209 25.6961 15.596 28.387C15.271 31.0779 15.6131 33.8075 16.5922 36.3349C17.5713 38.8624 19.1572 41.1101 21.2101 42.8799C22.3882 43.8816 23.3366 45.1254 23.9906 46.5266C24.6446 47.9279 24.9889 49.4536 25.0001 50.9999V51.6999C25.0001 52.0978 25.1581 52.4793 25.4394 52.7606C25.7207 53.0419 26.1023 53.1999 26.5001 53.1999H27.2601V55.7499C27.2601 57.0071 27.7595 58.2127 28.6484 59.1016C29.5373 59.9905 30.743 60.4899 32.0001 60.4899C33.2572 60.4899 34.4629 59.9905 35.3518 59.1016C36.2407 58.2127 36.7401 57.0071 36.7401 55.7499V53.2099H37.5001C37.8979 53.2099 38.2795 53.0519 38.5608 52.7706C38.8421 52.4893 39.0001 52.1078 39.0001 51.7099V50.9999C39.0252 49.4341 39.3843 47.8917 40.0534 46.4759C40.7225 45.06 41.6862 43.8034 42.8801 42.7899C44.8307 41.0934 46.3528 38.96 47.3225 36.5636C48.2922 34.1672 48.6819 31.5756 48.4601 28.9999V28.9999ZM33.7401 55.7599C33.7401 56.2214 33.5568 56.664 33.2305 56.9903C32.9041 57.3166 32.4616 57.4999 32.0001 57.4999C31.5386 57.4999 31.096 57.3166 30.7697 56.9903C30.4434 56.664 30.2601 56.2214 30.2601 55.7599V53.2099H33.7401V55.7599Z"/>
</svg>
