<svg xmlns="http://www.w3.org/2000/svg" viewBox="0 0 64 64">
<g data-name="Layer 27">
<path d="M57.08 36.11a19 19 0 0 1-5.36-11.36C51.46 12.48 40.14 2.15 27.87 3 8.26 3.79-1 28.81 13.33 42.12A42.11 42.11 0 0 1 17.4 60a1 1 0 0 0 .29.71 1 1 0 0 0 .71.29h23.33a1 1 0 0 0 1-.83l.83-4.79c.4-1.79 1.49-2.13 3.38-2.59 2.21-.54 5.24-1.28 4.81-6.64a.23.23 0 0 1 .15-.22A2.38 2.38 0 0 0 53 42.6a2.37 2.37 0 0 0 1.18-3.16h1.44a2 2 0 0 0 1.46-3.33Zm-3.14 1.33a1.85 1.85 0 0 0-1.55 2.82.36.36 0 0 1 0 .43L48 41a1 1 0 0 0-.07 2l3.35.51a.35.35 0 0 1-.15.55 2.27 2.27 0 0 0-1.37 2.14c.74 7.21-6.68 2.27-8.16 8.77l-.7 4H19.39a42.31 42.31 0 0 0-4.56-18.21 20.31 20.31 0 0 1-5.19-22.1C14.37 4.83 32.39.52 43 10.4a20.54 20.54 0 0 1 6.74 14.4 20.57 20.57 0 0 0 5.94 12.64Z"/><path d="m22.69 11.89 1.22.43a4.07 4.07 0 0 0 .09 1.21c-.76.4-2.14.73-1.64 1.9a1 1 0 0 0 1.34.47l1.17-.56a4.65 4.65 0 0 0 .9.81c-.26.81-1 2 .18 2.49a1 1 0 0 0 1.26-.64l.43-1.23a3.27 3.27 0 0 0 1.21-.06l.56 1.16a1 1 0 1 0 1.8-.87l-.56-1.16a4.16 4.16 0 0 0 .81-.91 10.28 10.28 0 0 0 1.55.49 1 1 0 0 0 .33-1.95l-1.22-.43a3.8 3.8 0 0 0-.07-1.21c.76-.39 2.14-.73 1.64-1.89a1 1 0 0 0-1.34-.47l-1.17.56a4.35 4.35 0 0 0-.9-.81c.26-.81 1-2-.19-2.49a1 1 0 0 0-1.27.61l-.43 1.22a4.43 4.43 0 0 0-1.21.07c-.39-.76-.73-2.13-1.89-1.63a1 1 0 0 0-.47 1.33l.56 1.17a3.92 3.92 0 0 0-.81.91L23.35 10a1 1 0 0 0-.66 1.89ZM28 10.56a2.15 2.15 0 0 1 2 2.85 2.14 2.14 0 1 1-2-2.85ZM37.17 22.64h-1a3.19 3.19 0 0 0-.29-.72l.67-.66a1 1 0 1 0-1.39-1.43l-.68.66a3.82 3.82 0 0 0-.72-.31v-.94a1 1 0 0 0-2 0v.94a3.74 3.74 0 0 0-.72.29l-.66-.67A1 1 0 0 0 29 21.17l.66.68a3.36 3.36 0 0 0-.3.71s-.94 0-1 0a1 1 0 0 0 0 2h.95a3.47 3.47 0 0 0 .29.73l-.67.65a1 1 0 1 0 1.39 1.43l.68-.66a3.82 3.82 0 0 0 .72.31V28a1 1 0 0 0 1 1 1 1 0 0 0 1-1v-1a3.74 3.74 0 0 0 .72-.29l.66.67A1 1 0 1 0 36.56 26l-.66-.67a3.23 3.23 0 0 0 .3-.72h1a1 1 0 0 0-.03-1.97Zm-3.27 2.09a1.59 1.59 0 0 1-2.23-2.27 1.59 1.59 0 0 1 2.23 2.27ZM26.54 25.85l-2.14-.76a5.58 5.58 0 0 0-.14-2.37l2-1a1 1 0 0 0 .47-1.33 1 1 0 0 0-1.34-.47l-2.05 1a5.5 5.5 0 0 0-1.77-1.59l.75-2.14a1 1 0 1 0-1.89-.67l-.75 2.15a5.47 5.47 0 0 0-2.38.14l-1-2a1 1 0 1 0-1.8.86l1 2.06a5.47 5.47 0 0 0-1.5 1.72l-2.15-.75a1 1 0 1 0-.66 1.88l2.14.76a5.76 5.76 0 0 0 .14 2.38l-2 1a1 1 0 1 0 .87 1.8l2.05-1a5.43 5.43 0 0 0 1.78 1.58l-.76 2.15a1 1 0 0 0 .61 1.27 1 1 0 0 0 1.28-.61l.7-2.15a5.32 5.32 0 0 0 2.38-.13l1 2.05a1 1 0 0 0 1.34.46 1 1 0 0 0 .47-1.33l-1-2A5.61 5.61 0 0 0 23.73 27a24.63 24.63 0 0 0 2.48.81 1 1 0 0 0 .33-1.96Zm-8.89 1.78a3.62 3.62 0 0 1 2.4-6.83c4.47 1.69 2.14 8.31-2.4 6.83Z"/>
</g>
</svg>